<?xml version="1.0" encoding="UTF-8" standalone="no"?>
<!DOCTYPE svg PUBLIC "-//W3C//DTD SVG 1.1//EN" "http://www.w3.org/Graphics/SVG/1.1/DTD/svg11.dtd">
<svg width="100%" height="100%" viewBox="0 0 1024 1024" version="1.1" xmlns="http://www.w3.org/2000/svg" xmlns:xlink="http://www.w3.org/1999/xlink" xml:space="preserve" xmlns:serif="http://www.serif.com/" style="fill-rule:evenodd;clip-rule:evenodd;stroke-linejoin:round;stroke-miterlimit:2;">
    <g transform="matrix(1.547777,-0.185338,0.185338,1.547777,-1165.405075,-192.665763)">
        <path d="M1016.424,316.394C1048.62,317.537 1074.29,328.497 1107.2,336.047C1140.11,343.607 1164.437,365.93 1182.377,394.54C1187.533,402.766 1226.987,448.54 1220.175,507.207C1217.954,526.336 1187.47,668.74 1155.482,738.743C1143.514,764.924 1093.895,824.396 1078.359,831.523C1023.058,856.891 941.704,843.303 899.78,780.37C854.35,712.19 819.54,636.94 796.99,558.17C789.452,531.83 811.601,485.185 814.193,474.611C819.401,453.367 816.762,452.981 822.72,431.742C824.374,425.845 834.418,390.036 864.803,367.788C916.493,329.948 984.545,315.263 1016.424,316.394Z" style="fill:rgb(255,212,0);fill-rule:nonzero;"/>
    </g>
    <g transform="matrix(2.026041,0,0,2.026041,-1523.373879,-1232.911649)">
        <path d="M1186,841.4C1182.5,833.6 1178.4,825.8 1171.1,821C1167.5,818.6 1163.3,816.4 1159.2,815.2C1157.1,814.6 1154.2,814.9 1153.1,813.5C1151.4,811.3 1151.8,806.5 1151.7,803.9C1151.5,798.6 1151.2,793.2 1150.1,788C1149.1,783.5 1147.2,779.5 1145.4,775.3C1143.2,770.3 1141.6,765 1139.5,760C1137.8,756 1136.2,752.2 1135.9,747.9C1135.5,743.3 1135.4,739 1133.3,734.7C1129.2,726.3 1122.4,718.3 1116,711.6C1109.1,704.3 1101.9,697 1093.8,691.2C1090,688.5 1085.9,685.9 1081.7,683.8C1077.5,681.8 1072.8,680.5 1068.9,677.9C1066.6,676.4 1065,674.6 1062.3,674C1059.7,673.5 1056.9,673.4 1054.3,672.9C1048.7,671.9 1043.1,670.7 1037.5,669.8C1031.8,668.9 1026,668.1 1020.2,667.8C1017,667.6 1013.9,667.6 1010.7,667.7C1009.6,667.7 1008.6,667.8 1007.6,667.9C1006.6,668 1005.5,668.1 1004.5,668.2C1002.8,668.4 1002.4,668.4 1003.5,668.4C995.7,669 988,667.5 980.2,667.8C972.7,668.1 965.6,670.1 958.6,672.8C944.3,678.4 929.8,684.1 916.9,692.6C904.5,700.7 893.3,711.1 883.9,722.6C874.2,734.5 868.7,747.6 864,762.1C861.6,769.5 859.4,777.1 858.2,784.8C857.1,792.5 857.5,800.5 856.9,808.3C856.7,810.5 857,815.5 855.2,817.1C853.6,818.6 849.5,818.6 847.4,819.4C841.1,821.6 834.8,824.8 830.1,829.7C825.4,834.6 823.3,841.1 821.4,847.5C819.3,855 818.1,862.6 818.4,870.4C818.9,885.8 823.7,901.9 830.6,915.6C837.3,929 850,938.1 861.8,946.8C867.9,951.3 874.9,955.2 880.8,960C885.2,963.6 886.8,969.6 888.6,974.7C890.9,981.2 894.6,986.7 898.2,992.5C901.9,998.5 904.4,1004.6 909.3,1009.8C919,1020.1 927.9,1031.4 940.4,1038.4C953.1,1045.5 967.7,1049.7 981.9,1052.5C997.2,1055.6 1012.6,1055.7 1027.9,1052.4C1042.4,1049.3 1055.9,1043.4 1068.4,1035.4C1080.3,1027.8 1091.8,1018.9 1099.8,1007.1C1104.1,1000.7 1107.4,993.7 1110.7,986.8C1113.9,980.1 1117.5,973.6 1120.8,967C1122.3,963.8 1123.7,960.8 1126.4,958.4C1129.2,955.9 1132.6,953.9 1135.8,951.9C1142.1,948.1 1148.4,944.6 1154.6,940.6C1160.3,937 1165.3,933.4 1169.3,927.8C1173.4,921.9 1177,915.4 1180.1,908.9C1183.2,902.3 1185.2,895.2 1187.3,888.2C1189.7,880.3 1191.4,872.8 1190.7,864.4C1189.7,856.6 1188,849 1186,841.4ZM1179.4,863C1178.9,873.1 1179.4,883.4 1176.8,893.2C1174.5,901.7 1170.3,909.8 1165,916.8C1159.5,924 1152.7,929 1145.2,933.9C1137.5,939 1130.8,946.1 1122.3,949.9C1114.4,953.4 1111,958.7 1108.4,966.8C1105.8,975.1 1102.5,983 1097.8,990.3C1095.4,994.1 1092.7,997.5 1089.7,1000.8C1086.4,1004.5 1083.7,1008.6 1080.3,1012.2C1074.1,1018.7 1066.6,1024.3 1058.9,1028.9C1042.9,1038.5 1024.1,1044.3 1005.4,1044.6C986.1,1044.9 966.5,1040.2 950.1,1029.9C942.7,1025.3 935,1021 928.1,1015.7C920.7,1009.9 915.4,1002.3 910.4,994.4C904.9,985.7 900.4,976.4 896.5,966.9C894.9,963 893.6,958.2 890.9,954.8C888.2,951.4 883.6,949.3 880,947.1C871.5,941.7 862.2,936.6 854.5,930C847.8,924.2 842.4,916.8 838,909.2C833.6,901.6 830.6,893.3 829.8,884.5C828.9,874.8 827.5,864.2 829.4,854.6C832.4,839.7 843.1,830 858.1,828.6C861.8,828.2 865,827.6 866.3,823.6C867.7,819.4 866.9,814.4 866.9,810.1C867,805.4 867.4,800.7 868.1,796C868.7,791.6 871.4,788.5 872.1,784.2C873.6,775 875.2,766.2 878.9,757.5C882.6,748.8 887.6,740.6 893,732.9C898.5,725.2 905.4,718.7 911.7,711.6C918.3,704.2 926.4,699.9 934.8,694.9C943.1,689.9 951.8,685.3 961.3,682.8C970.3,680.5 979.7,679.2 989,678.7C999.8,678.1 1010.4,680.5 1021.1,680.2C1031,680 1039.9,681 1049.4,683.8C1067.2,689 1085.4,697.3 1098.8,710.6C1111.6,723.4 1121.8,738.9 1129.2,755.3C1133.2,764.3 1135.9,773.9 1137.7,783.6C1139.5,793 1141.3,802.8 1141.8,812.4C1141.9,815.5 1140.9,819.6 1141.9,822.6C1143.2,826.6 1148.6,826.4 1152.1,826.9C1160.6,828.2 1168.9,832.8 1173.6,840.2C1178.1,846.8 1179.6,855.1 1179.4,863Z" style="fill-rule:nonzero;"/>
    </g>
    <g transform="matrix(2.026041,0,0,2.026041,-1523.373879,-1232.911649)">
        <path d="M1152.8,840.8C1145.4,834.6 1136,838 1131.2,845.5C1125.6,854.1 1125.8,863.6 1126.1,873.4C1126.3,878.9 1124.2,888 1130.3,891.2C1133.2,892.7 1136.6,891.5 1138.6,894.6C1141.4,898.9 1138.3,903.9 1135,906.8C1134,907.6 1132.1,908.3 1131.7,909.7C1131.6,910.3 1132.5,910.9 1132.4,911.8C1132.3,913.3 1130.3,913.5 1130.3,914.8C1130.3,916.4 1133.5,917.5 1134.6,917.9C1142.7,920.7 1150.7,912.1 1152.9,905C1155.6,896.1 1152.1,886.7 1144.4,881.7C1140.9,879.4 1138.3,878.1 1138.1,873.6C1137.9,869.2 1137.9,864.8 1137.7,860.5C1137.6,856.2 1139.6,850.9 1144.4,850.2C1146.6,849.9 1148.3,851 1150.3,851.3C1151.5,851.5 1152.4,851.3 1153.5,851.3C1155.6,851.3 1157.7,852.1 1157.5,849.1C1157.5,846.4 1154.8,842.5 1152.8,840.8Z" style="fill-rule:nonzero;"/>
    </g>
    <g transform="matrix(2.026041,0,0,2.026041,-1523.373879,-1232.911649)">
        <path d="M873,864.8C873,857.1 873.5,847.7 867,842.2C863,838.7 856.1,837.7 851.4,840.3C846.3,843 844.3,854.1 852.5,850.9C856.8,849.2 858.9,850 860.5,854.5C861.8,858.4 863.2,862.4 863.2,866.6C863.2,868.5 863,870.4 862.9,872.3C862.8,873.8 863.2,876.7 862.5,878.1C861.3,880.5 857.3,880.6 855,882.1C847.7,886.8 845.2,896.3 847.5,904.4C849.6,911.6 856.1,918 863.9,918.1C866.5,918.1 871.3,917.4 871.1,913.9C870.9,910.4 866,910.1 864.6,907.2C863.1,904 860.5,898.9 861.5,895.4C862.9,890.2 867.8,892.7 871.2,890.9C874.8,889 874.3,883.9 874.4,880.5C874.6,875 873,870 873,864.8Z" style="fill-rule:nonzero;"/>
    </g>
    <g transform="matrix(2.685857,0,0,1.230875,-856.080302,-265.845358)">
        <path d="M533.24,794.476C542.619,796.861 523.658,828.589 509.365,833.734C496.682,838.299 478.277,820.985 481.615,814.638C485.615,807.138 502.065,819.662 509.365,816.362C517.065,812.962 524.74,792.376 533.24,794.476Z" style="fill-rule:nonzero;"/>
    </g>
    <g transform="matrix(0.647253,-2.415582,1.143438,0.306383,-778.017855,1556.399429)">
        <path d="M528.4,809.1C546.1,813.6 479.161,862.98 486.261,849.48C490.261,841.98 483.308,803.485 490.608,800.185C498.308,796.785 519.9,807 528.4,809.1Z" style="fill-rule:nonzero;"/>
    </g>
    <g transform="matrix(0.994121,0,0,0.994121,-439.515421,-65.83958)">
        <path d="M868.82,521.53C865.58,519.62 861.7,520.97 858.2,521.19C851.76,521.97 845.41,523.3 839.11,524.83C830.44,527.41 821.351,528.853 813.09,532.54C804.743,536.265 796.64,541.7 789.03,547.18C783.39,551.32 777.83,555.56 772.42,559.99C768.22,563.49 764,567 760.44,571.17C759.38,572.48 757.92,573.57 757.42,575.23C754.25,582.71 761.738,595.185 767.568,589.455C776.478,579.255 784.988,573.515 792.278,567.865C800.428,561.505 813.277,551.791 820.264,548.348C824.901,546.062 834.228,542.48 839.228,541.17C845.718,539.32 849.27,537.73 855.92,536.56C861.39,535.79 856.65,536.34 863.02,535.65C864.66,535.46 866.41,535.57 867.93,534.85C873.57,532.89 874,524.33 868.83,521.52L868.82,521.53Z" style="fill-rule:nonzero;"/>
    </g>
    <g transform="matrix(0.994121,0,0,0.994121,-467.515421,-51.591746)">
        <path d="M1154.61,475.96C1152.73,473.96 1149.894,473.765 1147.4,473.07C1143.825,472.073 1137.993,470.463 1133.16,469.98C1126.302,469.295 1115.25,468.3 1106.25,468.96C1091.1,470.07 1072.01,475.153 1061.72,478.26C1055.472,480.146 1050.12,484.25 1044.51,487.6C1035.37,493.03 1021.025,501.057 1018.45,505.87C1016.091,510.28 1024.302,516.848 1029.06,516.48C1033.818,516.112 1042.043,509.567 1048.006,505.672C1053.79,501.894 1059.362,497.507 1065.846,495.122C1074.434,491.962 1091.228,488.303 1099.536,486.712C1104.84,485.696 1111.093,486.693 1115.696,486.578C1119.518,486.482 1123.363,486.549 1127.156,487.028C1131.478,487.573 1137.603,489.076 1141.626,489.848C1144.847,490.465 1147.96,490.45 1150.29,488.64C1152.62,486.83 1158.92,480.1 1154.6,475.97C1150.28,471.84 1156.49,477.96 1154.61,475.96Z" style="fill-rule:nonzero;"/>
    </g>
</svg>
